<svg xmlns="http://www.w3.org/2000/svg"><symbol id="arrow-up-right" viewBox="0 0 24 24" fill="none" stroke="currentColor" stroke-width="1.65" stroke-linecap="round" stroke-linejoin="round">
  <path d="M7 7h10v10" />
  <path d="M7 17 17 7" />
</symbol><symbol id="arrow-right" viewBox="0 0 24 24" fill="none" stroke="currentColor" stroke-width="1.65" stroke-linecap="round" stroke-linejoin="round">
  <path d="M5 12h14" />
  <path d="m12 5 7 7-7 7" />
</symbol><symbol id="arrow-left" viewBox="0 0 24 24" fill="none" stroke="currentColor" stroke-width="1.65" stroke-linecap="round" stroke-linejoin="round">
  <path d="m12 19-7-7 7-7" />
  <path d="M19 12H5" />
</symbol><symbol id="arrow-up" viewBox="0 0 24 24" fill="none" stroke="currentColor" stroke-width="1.65" stroke-linecap="round" stroke-linejoin="round">
  <path d="m5 12 7-7 7 7" />
  <path d="M12 19V5" />
</symbol><symbol id="arrow-down" viewBox="0 0 24 24" fill="none" stroke="currentColor" stroke-width="1.65" stroke-linecap="round" stroke-linejoin="round">
  <path d="M12 5v14" />
  <path d="m19 12-7 7-7-7" />
</symbol><symbol id="chevron-down" viewBox="0 0 24 24" fill="none" stroke="currentColor" stroke-width="1.65" stroke-linecap="round" stroke-linejoin="round">
  <path d="m6 9 6 6 6-6" />
</symbol><symbol id="phone" viewBox="0 0 24 24" fill="none" stroke="currentColor" stroke-width="1.65" stroke-linecap="round" stroke-linejoin="round">
  <path d="M13.832 16.568a1 1 0 0 0 1.213-.303l.355-.465A2 2 0 0 1 17 15h3a2 2 0 0 1 2 2v3a2 2 0 0 1-2 2A18 18 0 0 1 2 4a2 2 0 0 1 2-2h3a2 2 0 0 1 2 2v3a2 2 0 0 1-.8 1.6l-.468.351a1 1 0 0 0-.292 1.233 14 14 0 0 0 6.392 6.384" />
</symbol><symbol id="mail" viewBox="0 0 24 24" fill="none" stroke="currentColor" stroke-width="1.65" stroke-linecap="round" stroke-linejoin="round">
  <path d="m22 7-8.991 5.727a2 2 0 0 1-2.009 0L2 7" />
  <rect x="2" y="4" width="20" height="16" rx="2" />
</symbol><symbol id="map-pin" viewBox="0 0 24 24" fill="none" stroke="currentColor" stroke-width="1.65" stroke-linecap="round" stroke-linejoin="round">
  <path d="M20 10c0 4.993-5.539 10.193-7.399 11.799a1 1 0 0 1-1.202 0C9.539 20.193 4 14.993 4 10a8 8 0 0 1 16 0" />
  <circle cx="12" cy="10" r="3" />
</symbol><symbol id="graduation-cap" viewBox="0 0 24 24" fill="none" stroke="currentColor" stroke-width="1.65" stroke-linecap="round" stroke-linejoin="round">
  <path d="M21.42 10.922a1 1 0 0 0-.019-1.838L12.83 5.18a2 2 0 0 0-1.66 0L2.6 9.08a1 1 0 0 0 0 1.832l8.57 3.908a2 2 0 0 0 1.66 0z" />
  <path d="M22 10v6" />
  <path d="M6 12.5V16a6 3 0 0 0 12 0v-3.5" />
</symbol><symbol id="users" viewBox="0 0 24 24" fill="none" stroke="currentColor" stroke-width="1.65" stroke-linecap="round" stroke-linejoin="round">
  <path d="M16 21v-2a4 4 0 0 0-4-4H6a4 4 0 0 0-4 4v2" />
  <path d="M16 3.128a4 4 0 0 1 0 7.744" />
  <path d="M22 21v-2a4 4 0 0 0-3-3.87" />
  <circle cx="9" cy="7" r="4" />
</symbol><symbol id="lightbulb" viewBox="0 0 24 24" fill="none" stroke="currentColor" stroke-width="1.65" stroke-linecap="round" stroke-linejoin="round">
  <path d="M15 14c.2-1 .7-1.7 1.5-2.5 1-.9 1.5-2.2 1.5-3.5A6 6 0 0 0 6 8c0 1 .2 2.2 1.5 3.5.7.7 1.3 1.5 1.5 2.5" />
  <path d="M9 18h6" />
  <path d="M10 22h4" />
</symbol><symbol id="heart-handshake" viewBox="0 0 24 24" fill="none" stroke="currentColor" stroke-width="1.65" stroke-linecap="round" stroke-linejoin="round">
  <path d="M19.414 14.414C21 12.828 22 11.5 22 9.5a5.5 5.5 0 0 0-9.591-3.676.6.6 0 0 1-.818.001A5.5 5.5 0 0 0 2 9.5c0 2.3 1.5 4 3 5.5l5.535 5.362a2 2 0 0 0 2.879.052 2.12 2.12 0 0 0-.004-3 2.124 2.124 0 1 0 3-3 2.124 2.124 0 0 0 3.004 0 2 2 0 0 0 0-2.828l-1.881-1.882a2.41 2.41 0 0 0-3.409 0l-1.71 1.71a2 2 0 0 1-2.828 0 2 2 0 0 1 0-2.828l2.823-2.762" />
</symbol><symbol id="chart-no-axes-combined" viewBox="0 0 24 24" fill="none" stroke="currentColor" stroke-width="1.65" stroke-linecap="round" stroke-linejoin="round">
  <path d="M12 16v5" />
  <path d="M16 14.639V21" />
  <path d="M20 10.656V21" />
  <path d="m22 3-8.646 8.646a.5.5 0 0 1-.708 0L9.354 8.354a.5.5 0 0 0-.707 0L2 15" />
  <path d="M4 18.463V21" />
  <path d="M8 14.656V21" />
</symbol><symbol id="book-open" viewBox="0 0 24 24" fill="none" stroke="currentColor" stroke-width="1.65" stroke-linecap="round" stroke-linejoin="round">
  <path d="M12 5v16" />
  <path d="M20.001 19A2 2 0 0022 17V5a2 2 0 00-1.999-2L16 3.002A5 5 0 0012 5a5 5 0 00-4-2H4a2 2 0 00-2 2v12a2 2 0 001.999 2H8a5 5 0 014 2 5 5 0 014-2z" />
</symbol><symbol id="target" viewBox="0 0 24 24" fill="none" stroke="currentColor" stroke-width="1.65" stroke-linecap="round" stroke-linejoin="round">
  <circle cx="12" cy="12" r="10" />
  <circle cx="12" cy="12" r="6" />
  <circle cx="12" cy="12" r="2" />
</symbol><symbol id="messages-square" viewBox="0 0 24 24" fill="none" stroke="currentColor" stroke-width="1.65" stroke-linecap="round" stroke-linejoin="round">
  <path d="M16 10a2 2 0 0 1-2 2H6.828a2 2 0 0 0-1.414.586l-2.202 2.202A.71.71 0 0 1 2 14.286V4a2 2 0 0 1 2-2h10a2 2 0 0 1 2 2z" />
  <path d="M20 9a2 2 0 0 1 2 2v10.286a.71.71 0 0 1-1.212.502l-2.202-2.202A2 2 0 0 0 17.172 19H10a2 2 0 0 1-2-2v-1" />
</symbol><symbol id="sprout" viewBox="0 0 24 24" fill="none" stroke="currentColor" stroke-width="1.65" stroke-linecap="round" stroke-linejoin="round">
  <path d="M14 9.536V7a4 4 0 0 1 4-4h1.5a.5.5 0 0 1 .5.5V5a4 4 0 0 1-4 4 4 4 0 0 0-4 4c0 2 1 3 1 5a5 5 0 0 1-1 3" />
  <path d="M4 9a5 5 0 0 1 8 4 5 5 0 0 1-8-4" />
  <path d="M5 21h14" />
</symbol><symbol id="atom" viewBox="0 0 24 24" fill="none" stroke="currentColor" stroke-width="1.65" stroke-linecap="round" stroke-linejoin="round">
  <circle cx="12" cy="12" r="1" />
  <path d="M20.2 20.2c2.04-2.03.02-7.36-4.5-11.9-4.54-4.52-9.87-6.54-11.9-4.5-2.04 2.03-.02 7.36 4.5 11.9 4.54 4.52 9.87 6.54 11.9 4.5Z" />
  <path d="M15.7 15.7c4.52-4.54 6.54-9.87 4.5-11.9-2.03-2.04-7.36-.02-11.9 4.5-4.52 4.54-6.54 9.87-4.5 11.9 2.03 2.04 7.36.02 11.9-4.5Z" />
</symbol><symbol id="stethoscope" viewBox="0 0 24 24" fill="none" stroke="currentColor" stroke-width="1.65" stroke-linecap="round" stroke-linejoin="round">
  <path d="M11 2v2" />
  <path d="M5 2v2" />
  <path d="M5 3H4a2 2 0 0 0-2 2v4a6 6 0 0 0 12 0V5a2 2 0 0 0-2-2h-1" />
  <path d="M8 15a6 6 0 0 0 12 0v-3" />
  <circle cx="20" cy="10" r="2" />
</symbol><symbol id="shapes" viewBox="0 0 24 24" fill="none" stroke="currentColor" stroke-width="1.65" stroke-linecap="round" stroke-linejoin="round">
  <path d="M8.3 10a.7.7 0 0 1-.626-1.079L11.4 3a.7.7 0 0 1 1.198-.043L16.3 8.9a.7.7 0 0 1-.572 1.1Z" />
  <rect x="3" y="14" width="7" height="7" rx="1" />
  <circle cx="17.5" cy="17.5" r="3.5" />
</symbol><symbol id="dna" viewBox="0 0 24 24" fill="none" stroke="currentColor" stroke-width="1.65" stroke-linecap="round" stroke-linejoin="round">
  <path d="m10 16 1.5 1.5" />
  <path d="m14 8-1.5-1.5" />
  <path d="M15 2c-1.798 1.998-2.518 3.995-2.807 5.993" />
  <path d="m16.5 10.5 1 1" />
  <path d="m17 6-2.891-2.891" />
  <path d="M2 15c6.667-6 13.333 0 20-6" />
  <path d="m20 9 .891.891" />
  <path d="M3.109 14.109 4 15" />
  <path d="m6.5 12.5 1 1" />
  <path d="m7 18 2.891 2.891" />
  <path d="M9 22c1.798-1.998 2.518-3.995 2.807-5.993" />
</symbol><symbol id="pause" viewBox="0 0 24 24" fill="none" stroke="currentColor" stroke-width="1.65" stroke-linecap="round" stroke-linejoin="round">
  <rect x="14" y="3" width="5" height="18" rx="1" />
  <rect x="5" y="3" width="5" height="18" rx="1" />
</symbol><symbol id="play" viewBox="0 0 24 24" fill="none" stroke="currentColor" stroke-width="1.65" stroke-linecap="round" stroke-linejoin="round">
  <path d="M5 5a2 2 0 0 1 3.008-1.728l11.997 6.998a2 2 0 0 1 .003 3.458l-12 7A2 2 0 0 1 5 19z" />
</symbol><symbol id="mouse-pointer-2" viewBox="0 0 24 24" fill="none" stroke="currentColor" stroke-width="1.65" stroke-linecap="round" stroke-linejoin="round">
  <path d="M4.037 4.688a.495.495 0 0 1 .651-.651l16 6.5a.5.5 0 0 1-.063.947l-6.124 1.58a2 2 0 0 0-1.438 1.435l-1.579 6.126a.5.5 0 0 1-.947.063z" />
</symbol><symbol id="menu" viewBox="0 0 24 24" fill="none" stroke="currentColor" stroke-width="1.65" stroke-linecap="round" stroke-linejoin="round">
  <path d="M4 5h16" />
  <path d="M4 12h16" />
  <path d="M4 19h16" />
</symbol><symbol id="x" viewBox="0 0 24 24" fill="none" stroke="currentColor" stroke-width="1.65" stroke-linecap="round" stroke-linejoin="round">
  <path d="M18 6 6 18" />
  <path d="m6 6 12 12" />
</symbol><symbol id="plus" viewBox="0 0 24 24" fill="none" stroke="currentColor" stroke-width="1.65" stroke-linecap="round" stroke-linejoin="round">
  <path d="M5 12h14" />
  <path d="M12 5v14" />
</symbol><symbol id="quote" viewBox="0 0 24 24" fill="none" stroke="currentColor" stroke-width="1.65" stroke-linecap="round" stroke-linejoin="round">
  <path d="M16 3a2 2 0 0 0-2 2v6a2 2 0 0 0 2 2 1 1 0 0 1 1 1v1a2 2 0 0 1-2 2 1 1 0 0 0-1 1v2a1 1 0 0 0 1 1 6 6 0 0 0 6-6V5a2 2 0 0 0-2-2z" />
  <path d="M5 3a2 2 0 0 0-2 2v6a2 2 0 0 0 2 2 1 1 0 0 1 1 1v1a2 2 0 0 1-2 2 1 1 0 0 0-1 1v2a1 1 0 0 0 1 1 6 6 0 0 0 6-6V5a2 2 0 0 0-2-2z" />
</symbol><symbol id="copy" viewBox="0 0 24 24" fill="none" stroke="currentColor" stroke-width="1.65" stroke-linecap="round" stroke-linejoin="round">
  <rect width="14" height="14" x="8" y="8" rx="2" ry="2" />
  <path d="M4 16c-1.1 0-2-.9-2-2V4c0-1.1.9-2 2-2h10c1.1 0 2 .9 2 2" />
</symbol><symbol id="shield-check" viewBox="0 0 24 24" fill="none" stroke="currentColor" stroke-width="1.65" stroke-linecap="round" stroke-linejoin="round">
  <path d="M20 13c0 5-3.5 7.5-7.66 8.95a1 1 0 0 1-.67-.01C7.5 20.5 4 18 4 13V6a1 1 0 0 1 1-1c2 0 4.5-1.2 6.24-2.72a1.17 1.17 0 0 1 1.52 0C14.51 3.81 17 5 19 5a1 1 0 0 1 1 1z" />
  <path d="m9 12 2 2 4-4" />
</symbol><symbol id="expand" viewBox="0 0 24 24" fill="none" stroke="currentColor" stroke-width="1.65" stroke-linecap="round" stroke-linejoin="round">
  <path d="m15 15 6 6" />
  <path d="m15 9 6-6" />
  <path d="M21 16v5h-5" />
  <path d="M21 8V3h-5" />
  <path d="M3 16v5h5" />
  <path d="m3 21 6-6" />
  <path d="M3 8V3h5" />
  <path d="M9 9 3 3" />
</symbol><symbol id="external-link" viewBox="0 0 24 24" fill="none" stroke="currentColor" stroke-width="1.65" stroke-linecap="round" stroke-linejoin="round">
  <path d="M15 3h6v6" />
  <path d="M10 14 21 3" />
  <path d="M18 13v6a2 2 0 0 1-2 2H5a2 2 0 0 1-2-2V8a2 2 0 0 1 2-2h6" />
</symbol></svg>